# xmcd
#
# Track frame offsets: 
#        150
#        6927
#        16265
#        34947
#        42105
#        53830
#        71175
#        88937
#        103752
#        118612
#        134117
#        155130
#
# Disc length: 2338 seconds
#
# Revision: 0
# Processed by: cddbd v1.5.2PL0 Copyright (c) Steve Scherf et al.
# Submitted via: ExactAudioCopy v1.0b1
#
DISCID=ab09200c
DTITLE=Título DesconhecidoThe Underground Failure - The Underground Fa
DTITLE=ilure
DYEAR=1900
DGENRE=Blues
TTITLE0=Green Ocelot
TTITLE1=Why oh Why
TTITLE2=The Weekend Masquerade
TTITLE3=Boil on My Mind
TTITLE4=Make Your Own Kind Music
TTITLE5=Spring
TTITLE6=All Night Looking Lonesome Blues
TTITLE7=Night Before Berlim
TTITLE8=Ballad of Ulysses
TTITLE9=Never You aand Me
TTITLE10=Spanish Sunday Adieu
TTITLE11=How Unpleasant To Meet Mr. Elliott
EXTD=
EXTT0=
EXTT1=
EXTT2=
EXTT3=
EXTT4=
EXTT5=
EXTT6=
EXTT7=
EXTT8=
EXTT9=
EXTT10=
EXTT11=
PLAYORDER=
